<mxfile host="app.diagrams.net" agent="Mozilla/5.0 (Windows NT 10.0; Win64; x64) AppleWebKit/537.36 (KHTML, like Gecko) Chrome/141.0.0.0 Safari/537.36 Edg/141.0.0.0" version="28.2.5">
  <diagram name="Página-1" id="TZ_3GUbiWdYM7nlBXKq6">
    <mxGraphModel dx="2495" dy="925" grid="1" gridSize="10" guides="1" tooltips="1" connect="1" arrows="1" fold="1" page="1" pageScale="1" pageWidth="827" pageHeight="1169" math="0" shadow="0">
      <root>
        <mxCell id="0" />
        <mxCell id="1" parent="0" />
        <mxCell id="A_7FR0Z98MqDd7OA7Tk1-1" value="" style="ellipse;whiteSpace=wrap;html=1;" vertex="1" parent="1">
          <mxGeometry x="354" width="120" height="80" as="geometry" />
        </mxCell>
        <mxCell id="A_7FR0Z98MqDd7OA7Tk1-2" value="" style="ellipse;whiteSpace=wrap;html=1;" vertex="1" parent="1">
          <mxGeometry x="354" y="740" width="120" height="80" as="geometry" />
        </mxCell>
        <mxCell id="A_7FR0Z98MqDd7OA7Tk1-4" value="Ler N" style="rounded=0;whiteSpace=wrap;html=1;" vertex="1" parent="1">
          <mxGeometry x="349" y="130" width="130" height="60" as="geometry" />
        </mxCell>
        <mxCell id="A_7FR0Z98MqDd7OA7Tk1-5" value="" style="endArrow=classic;html=1;rounded=0;" edge="1" parent="1" source="A_7FR0Z98MqDd7OA7Tk1-1" target="A_7FR0Z98MqDd7OA7Tk1-4">
          <mxGeometry width="50" height="50" relative="1" as="geometry">
            <mxPoint x="420" y="120" as="sourcePoint" />
            <mxPoint x="470" y="70" as="targetPoint" />
          </mxGeometry>
        </mxCell>
        <mxCell id="A_7FR0Z98MqDd7OA7Tk1-6" value="" style="endArrow=classic;html=1;rounded=0;" edge="1" parent="1" source="A_7FR0Z98MqDd7OA7Tk1-4" target="A_7FR0Z98MqDd7OA7Tk1-7">
          <mxGeometry width="50" height="50" relative="1" as="geometry">
            <mxPoint x="440" y="100" as="sourcePoint" />
            <mxPoint x="414" y="240" as="targetPoint" />
          </mxGeometry>
        </mxCell>
        <mxCell id="A_7FR0Z98MqDd7OA7Tk1-7" value="N MOD 3 = 0&lt;div&gt;e&amp;nbsp;&lt;/div&gt;&lt;div&gt;N MOD 5 = 0&lt;/div&gt;" style="rhombus;whiteSpace=wrap;html=1;" vertex="1" parent="1">
          <mxGeometry x="358" y="230" width="116" height="110" as="geometry" />
        </mxCell>
        <mxCell id="A_7FR0Z98MqDd7OA7Tk1-8" value="" style="endArrow=classic;html=1;rounded=0;" edge="1" parent="1" source="A_7FR0Z98MqDd7OA7Tk1-7" target="A_7FR0Z98MqDd7OA7Tk1-9">
          <mxGeometry width="50" height="50" relative="1" as="geometry">
            <mxPoint x="280" y="320" as="sourcePoint" />
            <mxPoint x="260" y="285" as="targetPoint" />
          </mxGeometry>
        </mxCell>
        <mxCell id="A_7FR0Z98MqDd7OA7Tk1-13" value="Sim" style="edgeLabel;html=1;align=center;verticalAlign=middle;resizable=0;points=[];" vertex="1" connectable="0" parent="A_7FR0Z98MqDd7OA7Tk1-8">
          <mxGeometry x="0.1224" y="-3" relative="1" as="geometry">
            <mxPoint as="offset" />
          </mxGeometry>
        </mxCell>
        <mxCell id="A_7FR0Z98MqDd7OA7Tk1-9" value="Escrever &quot; O teu numero é um multiplo de 3 e 5 &quot;" style="shape=parallelogram;perimeter=parallelogramPerimeter;whiteSpace=wrap;html=1;fixedSize=1;" vertex="1" parent="1">
          <mxGeometry x="-90" y="255" width="360" height="60" as="geometry" />
        </mxCell>
        <mxCell id="A_7FR0Z98MqDd7OA7Tk1-10" value="" style="endArrow=classic;html=1;rounded=0;" edge="1" parent="1" source="A_7FR0Z98MqDd7OA7Tk1-9" target="A_7FR0Z98MqDd7OA7Tk1-4">
          <mxGeometry width="50" height="50" relative="1" as="geometry">
            <mxPoint x="110" y="200" as="sourcePoint" />
            <mxPoint x="90" y="150" as="targetPoint" />
            <Array as="points">
              <mxPoint x="90" y="160" />
            </Array>
          </mxGeometry>
        </mxCell>
        <mxCell id="A_7FR0Z98MqDd7OA7Tk1-11" value="" style="endArrow=classic;html=1;rounded=0;" edge="1" parent="1" source="A_7FR0Z98MqDd7OA7Tk1-7" target="A_7FR0Z98MqDd7OA7Tk1-15">
          <mxGeometry width="50" height="50" relative="1" as="geometry">
            <mxPoint x="520" y="330" as="sourcePoint" />
            <mxPoint x="590" y="290" as="targetPoint" />
          </mxGeometry>
        </mxCell>
        <mxCell id="A_7FR0Z98MqDd7OA7Tk1-14" value="Não" style="edgeLabel;html=1;align=center;verticalAlign=middle;resizable=0;points=[];" vertex="1" connectable="0" parent="A_7FR0Z98MqDd7OA7Tk1-11">
          <mxGeometry x="-0.1096" y="-1" relative="1" as="geometry">
            <mxPoint as="offset" />
          </mxGeometry>
        </mxCell>
        <mxCell id="A_7FR0Z98MqDd7OA7Tk1-12" value="Escrever &quot; O teu numero é um multiplo de 5&quot;" style="shape=parallelogram;perimeter=parallelogramPerimeter;whiteSpace=wrap;html=1;fixedSize=1;" vertex="1" parent="1">
          <mxGeometry x="720" y="255" width="450" height="60" as="geometry" />
        </mxCell>
        <mxCell id="A_7FR0Z98MqDd7OA7Tk1-15" value="N MOD 5 = 0" style="rhombus;whiteSpace=wrap;html=1;" vertex="1" parent="1">
          <mxGeometry x="580" y="240" width="90" height="85" as="geometry" />
        </mxCell>
        <mxCell id="A_7FR0Z98MqDd7OA7Tk1-16" value="" style="endArrow=classic;html=1;rounded=0;" edge="1" parent="1" source="A_7FR0Z98MqDd7OA7Tk1-15" target="A_7FR0Z98MqDd7OA7Tk1-24">
          <mxGeometry width="50" height="50" relative="1" as="geometry">
            <mxPoint x="650" y="310" as="sourcePoint" />
            <mxPoint x="700" y="260" as="targetPoint" />
          </mxGeometry>
        </mxCell>
        <mxCell id="A_7FR0Z98MqDd7OA7Tk1-17" value="não" style="edgeLabel;html=1;align=center;verticalAlign=middle;resizable=0;points=[];" vertex="1" connectable="0" parent="A_7FR0Z98MqDd7OA7Tk1-16">
          <mxGeometry x="-0.2" y="-1" relative="1" as="geometry">
            <mxPoint as="offset" />
          </mxGeometry>
        </mxCell>
        <mxCell id="A_7FR0Z98MqDd7OA7Tk1-18" value="" style="endArrow=classic;html=1;rounded=0;" edge="1" parent="1" source="A_7FR0Z98MqDd7OA7Tk1-15" target="A_7FR0Z98MqDd7OA7Tk1-12">
          <mxGeometry width="50" height="50" relative="1" as="geometry">
            <mxPoint x="550" y="450" as="sourcePoint" />
            <mxPoint x="730" y="240" as="targetPoint" />
          </mxGeometry>
        </mxCell>
        <mxCell id="A_7FR0Z98MqDd7OA7Tk1-19" value="sim" style="edgeLabel;html=1;align=center;verticalAlign=middle;resizable=0;points=[];" vertex="1" connectable="0" parent="A_7FR0Z98MqDd7OA7Tk1-18">
          <mxGeometry x="-0.2" y="2" relative="1" as="geometry">
            <mxPoint as="offset" />
          </mxGeometry>
        </mxCell>
        <mxCell id="A_7FR0Z98MqDd7OA7Tk1-21" value="" style="endArrow=classic;html=1;rounded=0;" edge="1" parent="1" source="A_7FR0Z98MqDd7OA7Tk1-42" target="A_7FR0Z98MqDd7OA7Tk1-2">
          <mxGeometry width="50" height="50" relative="1" as="geometry">
            <mxPoint x="625" y="720" as="sourcePoint" />
            <mxPoint x="630" y="750" as="targetPoint" />
            <Array as="points">
              <mxPoint x="625" y="780" />
            </Array>
          </mxGeometry>
        </mxCell>
        <mxCell id="A_7FR0Z98MqDd7OA7Tk1-22" value="" style="endArrow=classic;html=1;rounded=0;exitX=1;exitY=0.5;exitDx=0;exitDy=0;" edge="1" parent="1" source="A_7FR0Z98MqDd7OA7Tk1-12" target="A_7FR0Z98MqDd7OA7Tk1-4">
          <mxGeometry width="50" height="50" relative="1" as="geometry">
            <mxPoint x="930" y="255" as="sourcePoint" />
            <mxPoint x="1189" y="160" as="targetPoint" />
            <Array as="points">
              <mxPoint x="1240" y="280" />
              <mxPoint x="1240" y="160" />
              <mxPoint x="940" y="160" />
            </Array>
          </mxGeometry>
        </mxCell>
        <mxCell id="A_7FR0Z98MqDd7OA7Tk1-23" value="sim" style="edgeLabel;html=1;align=center;verticalAlign=middle;resizable=0;points=[];" vertex="1" connectable="0" parent="A_7FR0Z98MqDd7OA7Tk1-22">
          <mxGeometry x="0.435" y="4" relative="1" as="geometry">
            <mxPoint as="offset" />
          </mxGeometry>
        </mxCell>
        <mxCell id="A_7FR0Z98MqDd7OA7Tk1-24" value="N MOD 3 = 0" style="rhombus;whiteSpace=wrap;html=1;" vertex="1" parent="1">
          <mxGeometry x="580" y="370" width="90" height="85" as="geometry" />
        </mxCell>
        <mxCell id="A_7FR0Z98MqDd7OA7Tk1-25" value="Escrever &quot; O teu numero&amp;nbsp; é um multiplo de 3 &quot;" style="shape=parallelogram;perimeter=parallelogramPerimeter;whiteSpace=wrap;html=1;fixedSize=1;" vertex="1" parent="1">
          <mxGeometry x="790" y="382.5" width="360" height="60" as="geometry" />
        </mxCell>
        <mxCell id="A_7FR0Z98MqDd7OA7Tk1-26" value="" style="endArrow=classic;html=1;rounded=0;" edge="1" parent="1" source="A_7FR0Z98MqDd7OA7Tk1-24" target="A_7FR0Z98MqDd7OA7Tk1-25">
          <mxGeometry width="50" height="50" relative="1" as="geometry">
            <mxPoint x="710" y="280" as="sourcePoint" />
            <mxPoint x="771" y="280" as="targetPoint" />
          </mxGeometry>
        </mxCell>
        <mxCell id="A_7FR0Z98MqDd7OA7Tk1-27" value="sim" style="edgeLabel;html=1;align=center;verticalAlign=middle;resizable=0;points=[];" vertex="1" connectable="0" parent="A_7FR0Z98MqDd7OA7Tk1-26">
          <mxGeometry x="-0.2" y="2" relative="1" as="geometry">
            <mxPoint as="offset" />
          </mxGeometry>
        </mxCell>
        <mxCell id="A_7FR0Z98MqDd7OA7Tk1-28" value="" style="endArrow=classic;html=1;rounded=0;" edge="1" parent="1" source="A_7FR0Z98MqDd7OA7Tk1-24" target="A_7FR0Z98MqDd7OA7Tk1-36">
          <mxGeometry width="50" height="50" relative="1" as="geometry">
            <mxPoint x="580" y="660" as="sourcePoint" />
            <mxPoint x="625" y="570" as="targetPoint" />
            <Array as="points" />
          </mxGeometry>
        </mxCell>
        <mxCell id="A_7FR0Z98MqDd7OA7Tk1-29" value="NÃO" style="edgeLabel;html=1;align=center;verticalAlign=middle;resizable=0;points=[];" vertex="1" connectable="0" parent="A_7FR0Z98MqDd7OA7Tk1-28">
          <mxGeometry x="-0.3487" y="-2" relative="1" as="geometry">
            <mxPoint as="offset" />
          </mxGeometry>
        </mxCell>
        <mxCell id="A_7FR0Z98MqDd7OA7Tk1-34" value="" style="endArrow=none;html=1;rounded=0;" edge="1" parent="1" source="A_7FR0Z98MqDd7OA7Tk1-25">
          <mxGeometry width="50" height="50" relative="1" as="geometry">
            <mxPoint x="1160" y="390" as="sourcePoint" />
            <mxPoint x="1240" y="280" as="targetPoint" />
          </mxGeometry>
        </mxCell>
        <mxCell id="A_7FR0Z98MqDd7OA7Tk1-36" value="N == 0" style="rhombus;whiteSpace=wrap;html=1;" vertex="1" parent="1">
          <mxGeometry x="580" y="510" width="90" height="85" as="geometry" />
        </mxCell>
        <mxCell id="A_7FR0Z98MqDd7OA7Tk1-37" value="" style="endArrow=classic;html=1;rounded=0;" edge="1" parent="1" source="A_7FR0Z98MqDd7OA7Tk1-36" target="A_7FR0Z98MqDd7OA7Tk1-38">
          <mxGeometry width="50" height="50" relative="1" as="geometry">
            <mxPoint x="610" y="700" as="sourcePoint" />
            <mxPoint x="800" y="550" as="targetPoint" />
          </mxGeometry>
        </mxCell>
        <mxCell id="A_7FR0Z98MqDd7OA7Tk1-40" value="sim" style="edgeLabel;html=1;align=center;verticalAlign=middle;resizable=0;points=[];" vertex="1" connectable="0" parent="A_7FR0Z98MqDd7OA7Tk1-37">
          <mxGeometry x="-0.4477" y="1" relative="1" as="geometry">
            <mxPoint as="offset" />
          </mxGeometry>
        </mxCell>
        <mxCell id="A_7FR0Z98MqDd7OA7Tk1-38" value="Escrever &quot; o teu numero não é um multiplo de 3 ou 5 &quot;" style="shape=parallelogram;perimeter=parallelogramPerimeter;whiteSpace=wrap;html=1;fixedSize=1;" vertex="1" parent="1">
          <mxGeometry x="827" y="525" width="360" height="60" as="geometry" />
        </mxCell>
        <mxCell id="A_7FR0Z98MqDd7OA7Tk1-39" value="" style="endArrow=none;html=1;rounded=0;exitX=1;exitY=0.25;exitDx=0;exitDy=0;" edge="1" parent="1" source="A_7FR0Z98MqDd7OA7Tk1-38">
          <mxGeometry width="50" height="50" relative="1" as="geometry">
            <mxPoint x="1120" y="433" as="sourcePoint" />
            <mxPoint x="1240" y="280" as="targetPoint" />
          </mxGeometry>
        </mxCell>
        <mxCell id="A_7FR0Z98MqDd7OA7Tk1-41" value="" style="endArrow=classic;html=1;rounded=0;" edge="1" parent="1" source="A_7FR0Z98MqDd7OA7Tk1-36" target="A_7FR0Z98MqDd7OA7Tk1-42">
          <mxGeometry width="50" height="50" relative="1" as="geometry">
            <mxPoint x="600" y="650" as="sourcePoint" />
            <mxPoint x="625" y="630" as="targetPoint" />
          </mxGeometry>
        </mxCell>
        <mxCell id="A_7FR0Z98MqDd7OA7Tk1-42" value="Escrever&quot;o teu numero é zero BUG A DESLIGAR SISTEMA&quot;" style="shape=parallelogram;perimeter=parallelogramPerimeter;whiteSpace=wrap;html=1;fixedSize=1;" vertex="1" parent="1">
          <mxGeometry x="445" y="640" width="360" height="60" as="geometry" />
        </mxCell>
      </root>
    </mxGraphModel>
  </diagram>
</mxfile>
